<svg xmlns="http://www.w3.org/2000/svg" width="52.348" height="86.925" viewBox="0 0 52.348 86.925">
  <g id="Group_76" data-name="Group 76" transform="translate(-39.705 -12.431)">
    <g id="Group_75" data-name="Group 75" transform="translate(39.705 12.431)">
      <path id="Path_18" data-name="Path 18" d="M63.963,66.266l30.048-49.6L86.062,56.409h15.9L71.037,98.7l8.029-32.433" transform="translate(-49.612 -14.159)" fill="#fd6c0c"/>
      <path id="Path_19" data-name="Path 19" d="M43.806,66.266l30.048-49.6L65.905,56.409H81.8L50.881,98.7,58.91,66.266" transform="translate(-41.38 -14.159)" fill="#32373b"/>
      <path id="Path_20" data-name="Path 20" d="M54.112,99.356a2.448,2.448,0,0,1-1.033-.238,2.311,2.311,0,0,1-1.272-2.7l7.949-31.8a2.372,2.372,0,1,1,4.611,1.113L59.359,85.683l20.907-28.7H69.137a2.366,2.366,0,0,1-2.305-2.862l7.949-39.747a2.385,2.385,0,1,1,4.69.874L72,52.3H84.956A2.412,2.412,0,0,1,87.1,53.568a2.314,2.314,0,0,1-.238,2.464L55.941,98.323a1.875,1.875,0,0,1-1.828,1.033Z" transform="translate(-44.611 -12.431)" fill="#3f4a54"/>
      <path id="Path_21" data-name="Path 21" d="M42.131,67.031a2.517,2.517,0,0,1-1.272-.318,2.356,2.356,0,0,1-.795-3.259l30.048-49.6a2.372,2.372,0,1,1,4.054,2.464L44.2,65.839a2.582,2.582,0,0,1-2.067,1.192Z" transform="translate(-39.705 -12.539)" fill="#3f4a54"/>
    </g>
  </g>
</svg>
