<svg xmlns="http://www.w3.org/2000/svg" width="72.423" height="91" viewBox="0 0 72.423 91">
  <g id="Group_74" data-name="Group 74" transform="translate(-4.919 -3.097)">
    <path id="Path_14" data-name="Path 14" d="M61.847,12.094l-33.9,7.69V48.972c0,21.97,10.985,34.917,29.189,47.079l2.589,1.726a3.946,3.946,0,0,0,2.119.628v-.078a4.159,4.159,0,0,0,2.119-.628l2.589-1.726C84.837,83.811,95.744,70.864,95.744,48.894V19.626Z" transform="translate(-20.677 -6.663)" fill="#32373b"/>
    <path id="Path_15" data-name="Path 15" d="M67.214,66.376v34.839l.471-.314c14.359-9.573,23.618-18.989,25.5-34.525Zm0-27.541A125.928,125.928,0,0,0,40.85,41.581V60.1a52.833,52.833,0,0,0,.392,6.277H67.214Z" transform="translate(-26.045 -17.789)" fill="#fd6c0c"/>
    <path id="Path_16" data-name="Path 16" d="M60.17,99.1a6.529,6.529,0,0,1-3.374-1.02L54.206,96.35C38.513,85.836,23.919,72.654,23.919,47.31V18.121a2.355,2.355,0,0,1,1.8-2.275l33.9-7.69a2.239,2.239,0,0,1,1.02,0l33.9,7.533a2.275,2.275,0,0,1,1.8,2.275V47.231c0,25.344-14.516,38.526-30.288,49.041L63.465,98a5.753,5.753,0,0,1-2.511.942,1.969,1.969,0,0,1-.785.157ZM28.627,20V47.309c0,21.813,11.3,33.818,28.169,45.117l2.589,1.726a.6.6,0,0,0,.314.157c.157,0,.314-.078.471-.078A1.326,1.326,0,0,0,60.954,94l2.589-1.726c16.87-11.3,28.169-23.226,28.169-45.117V19.846L60.17,12.863Z" transform="translate(-19 -5)" fill="#464c55"/>
  </g>
</svg>
