<svg xmlns="http://www.w3.org/2000/svg" width="86.925" height="86.925" viewBox="0 0 86.925 86.925">
  <g id="Group_72" data-name="Group 72" transform="translate(-378.5 -1966.5)">
    <path id="Path_7" data-name="Path 7" d="M100.776,107.024H91.359l-3.622-12.5-52.789,12.5-9.417-9.417V31.779a6.26,6.26,0,0,1,6.248-6.248h69a6.26,6.26,0,0,1,6.248,6.248v69a6.26,6.26,0,0,1-6.248,6.248Z" transform="translate(355.685 1943.685)" fill="#32373b"/>
    <path id="Path_8" data-name="Path 8" d="M48.778,25.531H98.941v34.5H48.778Z" transform="translate(348.103 1943.685)" fill="#fd6c0c"/>
    <path id="Path_9" data-name="Path 9" d="M101.965,131.3H95.718L84.49,128.135,58.05,131.3V99.975h43.915Z" transform="translate(345.079 1919.404)" fill="#c95000"/>
    <path id="Path_10" data-name="Path 10" d="M58.05,99.975h34.5V131.3H58.05Z" transform="translate(345.079 1919.404)" fill="#fd6c0c"/>
    <path id="Path_11" data-name="Path 11" d="M72.025,109.247h9.417v15.665H72.025Z" transform="translate(340.521 1916.38)" fill="#c95000"/>
    <path id="Path_12" data-name="Path 12" d="M99.461,108.425H33.633a2.466,2.466,0,0,1-1.9-.815l-9.417-9.417a2.606,2.606,0,0,1-.815-1.9V30.464A8.985,8.985,0,0,1,30.464,21.5h69a8.985,8.985,0,0,1,8.964,8.964v69a9.044,9.044,0,0,1-8.964,8.964ZM34.72,102.993H99.37a3.536,3.536,0,0,0,3.531-3.531v-69a3.536,3.536,0,0,0-3.531-3.531H30.464a3.536,3.536,0,0,0-3.531,3.531v64.65Z" transform="translate(357 1945)" fill="#444b54"/>
  </g>
</svg>
