<svg id="Group_85" data-name="Group 85" xmlns="http://www.w3.org/2000/svg" width="88.425" height="88.425" viewBox="0 0 88.425 88.425">
  <path id="Path_48" data-name="Path 48" d="M0,88.425V0H88.425V88.425Z" fill="none"/>
  <g id="Group_84" data-name="Group 84" transform="translate(0.691 4.246)">
    <path id="Path_49" data-name="Path 49" d="M84.8,93.707a4.882,4.882,0,0,0-6.839.207c-10.293,10.293-18.859,13.609-29.291,12.3-4.283-.553-6.425-1.8-10.293-3.523a17.432,17.432,0,0,1-2.211-1.243,4.15,4.15,0,0,1,0-7.185l10.362-6.01a5.634,5.634,0,0,0,2.349-7.323,5.536,5.536,0,0,0-7.737-2.349l-23.9,13.816H10.325V90.322H1.344v27.633h8.981v-4.836S26.9,120.027,41,120.027c18.929,0,34.61-9.533,43.8-19.274a5.068,5.068,0,0,0,0-7.046Z" transform="translate(-1.344 -42.066)" fill="#32373b"/>
    <path id="Path_50" data-name="Path 50" d="M47.49,120.142c-14.369,0-30.811-6.77-31.5-7.046a2.029,2.029,0,0,1-1.105-2.694,2.052,2.052,0,0,1,2.694-1.105c.138.069,16.373,6.77,29.844,6.77,22.935,0,38.2-14.3,42.347-18.652a2.989,2.989,0,0,0,.069-4.076,2.819,2.819,0,0,0-3.938.138c-10.5,10.431-19.758,14.231-31.018,12.849a26.918,26.918,0,0,1-9.326-2.971c-.484-.207-1.036-.484-1.589-.76-.276-.138-.76-.345-2.418-1.313a6.224,6.224,0,0,1,0-10.777L51.98,84.5a3.551,3.551,0,0,0,1.52-4.629,3.335,3.335,0,0,0-2.072-1.8,3.568,3.568,0,0,0-2.763.345l-23.9,13.816a2.074,2.074,0,0,1-2.072-3.592l23.9-13.816a7.61,7.61,0,1,1,7.461,13.264L43.621,94.1a2.075,2.075,0,0,0,0,3.592A12.247,12.247,0,0,0,45.693,98.8c.553.276,1.105.484,1.589.76a23.643,23.643,0,0,0,8.083,2.625c9.948,1.243,17.961-2.142,27.564-11.744a6.947,6.947,0,0,1,9.741-.207,7.129,7.129,0,0,1,.069,9.948c-11.744,12.5-28.669,19.965-45.249,19.965Z" transform="translate(-7.836 -40.108)" fill="#444b54"/>
    <path id="Path_51" data-name="Path 51" d="M10.324,129.871H3.416a2.072,2.072,0,1,1,0-4.145H8.252V102.238H3.416a2.072,2.072,0,1,1,0-4.145h6.908a2.035,2.035,0,0,1,2.072,2.072V127.8A2.035,2.035,0,0,1,10.324,129.871Z" transform="translate(-1.344 -51.91)" fill="#444b54"/>
    <path id="Path_52" data-name="Path 52" d="M102.921,36.482,119.708,8.711a.945.945,0,0,1,1.727.691l-4.352,21.83h8.981a.932.932,0,0,1,.76,1.451l-17.2,23.488a.929.929,0,0,1-1.658-.76l4.352-17.547h-8.635a.881.881,0,0,1-.76-1.382Z" transform="translate(-50.626 -8.26)" fill="#fd6c0c"/>
    <path id="Path_53" data-name="Path 53" d="M116.5,75.926l2.487-9.948h1.934a1.426,1.426,0,0,1,1.174,2.211Z" transform="translate(-57.3 -36.305)" fill="#c95000"/>
  </g>
</svg>
