<svg id="Group_83" data-name="Group 83" xmlns="http://www.w3.org/2000/svg" width="88.425" height="88.425" viewBox="0 0 88.425 88.425">
  <path id="Path_42" data-name="Path 42" d="M0,88.425V0H88.425V88.425Z" fill="none"/>
  <g id="Layer_1" transform="translate(1.143 0.691)">
    <path id="Path_43" data-name="Path 43" d="M76.1,17.542h0a41.449,41.449,0,1,0,0,58.582,41.382,41.382,0,0,0,0-58.582Z" transform="translate(-3.738 -3.311)" fill="#32373b"/>
    <circle id="Ellipse_4" data-name="Ellipse 4" cx="24.87" cy="24.87" r="24.87" transform="translate(18.201 18.652)" fill="#fd6c0c"/>
    <path id="Path_44" data-name="Path 44" d="M52.7,1.344a43.224,43.224,0,0,0-30.742,12.78,2.052,2.052,0,1,0,2.9,2.9A39.375,39.375,0,1,1,52.7,84.243,39.125,39.125,0,0,1,23.962,71.808h8.014a2.072,2.072,0,0,0,0-4.145H19.541a2.035,2.035,0,0,0-2.072,2.072V82.17a2.072,2.072,0,0,0,4.145,0V75.331A43.125,43.125,0,0,0,52.7,88.387a43.522,43.522,0,1,0,0-87.044Z" transform="translate(-9.631 -1.344)" fill="#444b54"/>
    <path id="Path_45" data-name="Path 45" d="M6.32,106.623a2.078,2.078,0,0,1-1.934-1.382,40.7,40.7,0,0,1-1.865-7.046,2.1,2.1,0,0,1,1.658-2.418A2.1,2.1,0,0,1,6.6,97.435a34.44,34.44,0,0,0,1.658,6.356,2.025,2.025,0,0,1-1.243,2.625,1.333,1.333,0,0,1-.691.207Z" transform="translate(-2.351 -47.212)" fill="#444b54"/>
    <path id="Path_46" data-name="Path 46" d="M4.258,62.945H3.981A2.043,2.043,0,0,1,2.254,60.6,43.375,43.375,0,0,1,6.261,47.54a2.07,2.07,0,1,1,3.73,1.8A37.854,37.854,0,0,0,6.33,61.149a2.085,2.085,0,0,1-2.072,1.8Z" transform="translate(-2.222 -23.223)" fill="#444b54"/>
    <path id="Path_47" data-name="Path 47" d="M93.091,83.487a1.988,1.988,0,0,1-1.451-.622l-9.05-9.05a1.881,1.881,0,0,1-.622-1.451v-15.2a2.072,2.072,0,1,1,4.145,0V71.535l8.5,8.428a2,2,0,0,1,0,2.9,2.143,2.143,0,0,1-1.52.622Z" transform="translate(-40.971 -27.461)" fill="#fff"/>
  </g>
</svg>
