<svg id="Layer_1" xmlns="http://www.w3.org/2000/svg" width="87.058" height="87.044" viewBox="0 0 87.058 87.044">
  <circle id="Ellipse_1" data-name="Ellipse 1" cx="31.087" cy="31.087" r="31.087" transform="translate(12.484 12.435)" fill="#32373b"/>
  <path id="Path_23" data-name="Path 23" d="M116.039,49.626A31.159,31.159,0,0,0,99.667,31.043a1.83,1.83,0,0,0-2.832,1.865l.069,2.9A3.92,3.92,0,0,1,94.555,39.4c-3.109,1.382-6.217.622-7.53,4.214-.967,2.694,1.8,9.948,5.25,9.948,4.352,0,6.494-8.773,7.737-8.773.829,0,2.142,2.694,3.661,4.629a5.469,5.469,0,0,0,4.283,2.072h2.9l2.763.622a2,2,0,0,0,2.418-2.487Z" transform="translate(-42.832 -15.638)" fill="#fd6c0c"/>
  <path id="Path_24" data-name="Path 24" d="M96.695,95.847c-1.589,2.211,6.7,8.912,9.464,7.6,4.7-2.211,7.806-6.77,7.806-8.5s-2.211-4.974-9.741.138c-2.142,1.52-5.941-1.52-7.53.76Z" transform="translate(-47.528 -45.555)" fill="#fd6c0c"/>
  <path id="Path_25" data-name="Path 25" d="M49.848,79.312c1.658-1.658,2.142-4.214,1.313-5.734-2.763-4.9-9.257-2.349-9.879,2.9a14.847,14.847,0,0,1-3.869,8.014c-1.589,1.589-4.767.76-5.6-1.589-.967-2.625,2.418-3.592,1.934-6.977-.138-.9-1.105-1.382-2.28-1.589l-1.8.069a4.324,4.324,0,0,0-4.145,4.283h0a31.427,31.427,0,0,0,21,29.636,2.742,2.742,0,0,0,3.661-2.556h0a4.694,4.694,0,0,0-1.382-3.385h0c-1.382-1.382,1.52-3.8,2.28-6.908C53.3,86.911,45.911,86.566,45.7,84.7c-.276-2.142,2.418-3.73,4.145-5.388Z" transform="translate(-13.047 -35.169)" fill="#fd6c0c"/>
  <path id="Path_26" data-name="Path 26" d="M36.341,16.179a2.06,2.06,0,0,1-1.658-.829,2.088,2.088,0,0,1,.414-2.9,44.431,44.431,0,0,1,9.879-5.457A2.078,2.078,0,1,1,46.5,10.86a40.01,40.01,0,0,0-8.912,4.9,2.069,2.069,0,0,1-1.243.414Z" transform="translate(-17.295 -4.021)" fill="#444b54"/>
  <path id="Path_27" data-name="Path 27" d="M44.819,99.879a43.617,43.617,0,0,1-37.3-66.043,2.061,2.061,0,0,1,3.523,2.142,39.408,39.408,0,1,0,61.621-7.461,2.052,2.052,0,0,1,2.9-2.9A43.487,43.487,0,0,1,44.819,99.879Z" transform="translate(-1.248 -12.835)" fill="#444b54"/>
  <circle id="Ellipse_2" data-name="Ellipse 2" cx="4.836" cy="4.836" r="4.836" transform="translate(68.026 9.395)" fill="#fff"/>
  <path id="Path_28" data-name="Path 28" d="M136.446,29.4a6.908,6.908,0,1,1,6.908-6.908A6.929,6.929,0,0,1,136.446,29.4Zm0-9.672a2.763,2.763,0,1,0,2.763,2.763A2.771,2.771,0,0,0,136.446,19.732Z" transform="translate(-63.584 -8.265)" fill="#444b54"/>
  <g id="Group_77" data-name="Group 77" transform="translate(41.498)">
    <circle id="Ellipse_3" data-name="Ellipse 3" cx="2.072" cy="2.072" r="2.072" fill="#444b54"/>
  </g>
</svg>
