<svg xmlns="http://www.w3.org/2000/svg" x="0px" y="0px" alt="cloud compute" viewBox="0 0 48 48" fill="#fff">
	<polygon fill="#cadefe" stroke="#b2b9ce" stroke-width="1" points="3.5,35.7 24.5,47.4 44.5,35.7 37.2,31.3 24.5,38.4 11.9,31.3"></polygon>
	<path stroke="#007bfc" fill="#007bfc" stroke-linecap="round" stroke-linejoin="round" stroke-width="1" d="M3.5,28.2l21,11.7l20-11.7c-0.1-0.1-6-3.7-6.1-3.7c0,0-9.6,5.3-13.9,7.8c0,0-14-7.9-14-7.9C10.5,24.5,3.5,28.2,3.5,28.2z"></path>
	<polyline stroke="#142149" points="44.5,12.8 44.5,20.3 24.5,32.2 3.5,20.2 3.5,12.8"></polyline>
	<polygon stroke="#142149" points="3.8,12.6 24.5,24.5 44.5,12.6 24.5,0.6"></polygon>
	<polygon fill="#007bfc" points="17.6,7.3 24.5,11.3 31.4,7.3 24.5,3.3"></polygon>
	<polygon fill="#007bfc" points="17.6,17.1 24.5,21.1 31.4,17.2 24.5,13.2"></polygon>
	<polygon fill="#007bfc"  points="26.2,12.2 33.1,16.2 39.9,12.2 33.1,8.3"></polygon>
	<polygon fill="#007bfc" points="9.1,12.2 16,16.2 22.8,12.2 16,8.3"></polygon>
</svg>