<svg width="34" height="35" viewBox="0 0 34 35" fill="none" xmlns="http://www.w3.org/2000/svg">
    <g clip-path="url(#clip0_2870_3359)">
        <path fill-rule="evenodd" clip-rule="evenodd" d="M16.8636 23.4988C9.35025 23.4305 6.95964 20.6984 6.54982 20.9716C2.79315 23.9086 3.27128 28.1434 7.91588 30.8072C13.0386 33.7443 21.4399 33.7443 26.5626 30.8072C31.0023 28.2117 31.617 24.2501 28.3385 21.3131C27.7921 20.9033 23.0109 23.5671 16.8636 23.4988Z" fill="url(#paint0_linear_2870_3359)" stroke="url(#paint1_linear_2870_3359)" stroke-miterlimit="10" stroke-linecap="round" stroke-linejoin="round"></path>
        <path fill-rule="evenodd" clip-rule="evenodd" d="M17.4102 23.3622C7.30131 23.4305 4.6375 17.898 4.56919 18.0346C3.20313 20.6301 4.29598 23.6354 7.84774 25.6845C12.9705 28.6215 21.3717 28.6215 26.4945 25.6845C30.0462 23.6354 31.1391 20.6984 29.773 18.1029C29.7047 17.9663 27.1092 22.7475 17.4102 23.3622Z" fill="#007BFC" stroke="#007BFC" stroke-miterlimit="10" stroke-linecap="round" stroke-linejoin="round"></path>
        <path d="M18 5.01004L17 9.51004" stroke="#007BFC" stroke-width="1.6" stroke-miterlimit="10" stroke-linecap="round" stroke-linejoin="round"></path>
        <path d="M4.02295 8.7453C4.02295 10.248 4.02295 14.8926 4.02295 15.3707C4.02295 17.3515 5.32071 19.264 7.84792 20.7666C12.9706 23.7037 21.3719 23.7037 26.4947 20.7666C28.9536 19.3323 30.2513 17.4198 30.3196 15.5756C30.3196 14.6877 30.3196 11.0676 30.3196 9.49663" stroke="#393D45" stroke-linecap="round" stroke-linejoin="round"></path>
        <path fill-rule="evenodd" clip-rule="evenodd" d="M26.4946 3.21278C21.3719 0.275752 12.9706 0.275752 7.84791 3.21278C2.72518 6.14981 2.72518 10.9993 7.84791 13.9364C12.9706 16.8734 21.3719 16.8734 26.4946 13.9364C31.6174 10.9993 31.6857 6.14981 26.4946 3.21278Z" stroke="#393D45" stroke-linecap="round" stroke-linejoin="round"></path>
        <path d="M9.91545 12.4084C6.02818 10.273 6.02818 6.74703 9.91545 4.61159C13.8027 2.47615 20.1778 2.47615 24.0651 4.61159C28.0042 6.74703 27.9523 10.273 24.0651 12.4084" stroke="#007BFC" stroke-linecap="round" stroke-linejoin="round"></path>
        <ellipse cx="17" cy="9.51001" rx="2" ry="1.5" fill="#007BFC"></ellipse>
    </g>
    <defs>
        <linearGradient id="paint0_linear_2870_3359" x1="4.03709" y1="27.0137" x2="30.3737" y2="27.0137" gradientUnits="userSpaceOnUse">
            <stop stop-color="#B2CFFD"></stop>
            <stop offset="1" stop-color="#D3E3FE"></stop>
        </linearGradient>
        <linearGradient id="paint1_linear_2870_3359" x1="3.69557" y1="27.0137" x2="30.7152" y2="27.0137" gradientUnits="userSpaceOnUse">
            <stop stop-color="#B2CFFD"></stop>
            <stop offset="1" stop-color="#D3E3FE"></stop>
        </linearGradient>
        <clipPath id="clip0_2870_3359">
            <rect width="34" height="34" fill="white" transform="translate(0 0.0100098)"></rect>
        </clipPath>
    </defs>
</svg>