<svg width="48" height="48" viewBox="0 0 48 48" fill="none" xmlns="http://www.w3.org/2000/svg">
	<path d="M1.8999 34.7L23.9999 47.5L46.0999 34.8L39.3999 30.9L23.9999 40L8.3999 31L1.8999 34.7Z" fill="url(#optimized-cloud-controlpaint0_linear_3533_46400)" stroke="url(#optimized-cloud-controlpaint1_linear_3533_46400)" stroke-miterlimit="10" stroke-linecap="round" stroke-linejoin="round"></path>
	<path d="M1.8999 27.8L23.9999 40.5L46.0999 27.8L40.8999 24.8C40.8999 24.8 37.7549 26.4999 36.9999 26.9999C36.2449 27.4999 35.6402 27.078 33.9999 25.9999C32.3596 24.9218 33.4999 29.4999 30.9999 30.4999C28.4999 31.4999 27.4999 31.9999 23.9999 31.9999C20.4999 31.9999 16.7671 30.4999 15.9999 29.4999C15.2326 28.4999 15.1782 27.2499 14.9999 25.9999C14.8216 24.7499 12.1237 27.4999 10.9999 26.9999C9.87606 26.4999 6.9999 24.9 6.9999 24.9L1.8999 27.8Z" fill="#007CFC" stroke="#007CFC" stroke-linecap="round" stroke-linejoin="round"></path>
	<path d="M47.3957 20.7268L47.6478 21.1587L47.653 21.1556L47.3957 20.7268ZM36.8246 26.8982L37.0216 27.3578L37.05 27.3456L37.0767 27.33L36.8246 26.8982ZM36.175 26.8687L36.4524 26.4527L36.4401 26.4445L36.4274 26.4371L36.175 26.8687ZM11.7553 26.8982L11.9522 27.3578L11.9806 27.3456L12.0074 27.33L11.7553 26.8982ZM11.1056 26.8687L11.383 26.4527L11.3707 26.4445L11.358 26.4371L11.1056 26.8687ZM0.652692 20.7564L0.375341 21.1724L0.387591 21.1806L0.400301 21.188L0.652692 20.7564ZM47.5 20.5624L48 20.5589V20.5589L47.5 20.5624ZM0.507003 20.5668L0.998712 20.4761L0.998712 20.4761L0.507003 20.5668ZM13.0254 8.66926L13.5254 8.67134L13.5254 8.67102L13.0254 8.66926ZM13.0254 8.66764L12.5254 8.66556L12.5254 8.66588L13.0254 8.66764ZM47.1436 20.295L36.5726 26.4664L37.0767 27.33L47.6478 21.1586L47.1436 20.295ZM36.6277 26.4386C36.5925 26.4537 36.5472 26.4626 36.5049 26.4612C36.4613 26.4598 36.4467 26.4488 36.4524 26.4527L35.8977 27.2847C36.2508 27.5201 36.7032 27.4943 37.0216 27.3578L36.6277 26.4386ZM11.5583 26.4386C11.5231 26.4537 11.4778 26.4626 11.4355 26.4612C11.3919 26.4598 11.3773 26.4488 11.383 26.4527L10.8283 27.2847C11.1814 27.5201 11.6338 27.4943 11.9522 27.3578L11.5583 26.4386ZM11.358 26.4371L0.905082 20.3247L0.400301 21.188L10.8533 27.3003L11.358 26.4371ZM47.5 15.2923C47 15.2923 47 15.2923 47 15.2924C47 15.2924 47 15.2925 47 15.2925C47 15.2927 47 15.2929 47 15.2932C47 15.2939 47 15.2948 47 15.2961C47 15.2986 47 15.3023 47 15.3072C47 15.317 47 15.3316 47 15.3507C47 15.3887 47 15.4446 47 15.5157C46.9999 15.6579 46.9999 15.8611 46.9999 16.1052C46.9999 16.5934 46.9998 17.2452 46.9998 17.8993C46.9997 19.2052 46.9997 20.5261 47 20.5659L48 20.5589C48 20.5591 48 20.558 48 20.5541C48 20.5507 48 20.546 48 20.5401C47.9999 20.5282 47.9999 20.5116 47.9999 20.4906C47.9999 20.4485 47.9999 20.3889 47.9998 20.3143C47.9998 20.1651 47.9998 19.9561 47.9998 19.7073C47.9997 19.2098 47.9998 18.5534 47.9998 17.8993C47.9998 17.2452 47.9999 16.5935 47.9999 16.1053C47.9999 15.8612 47.9999 15.658 48 15.5158C48 15.4447 48 15.3888 48 15.3507C48 15.3317 48 15.3171 48 15.3073C48 15.3024 48 15.2987 48 15.2962C48 15.2949 48 15.294 48 15.2933C48 15.293 48 15.2928 48 15.2926C48 15.2925 48 15.2925 48 15.2924C48 15.2924 48 15.2924 47.5 15.2923ZM47 20.5659C46.999 20.4165 47.089 20.3278 47.1385 20.2981L47.653 21.1556C47.8385 21.0443 48.0019 20.8363 48 20.5589L47 20.5659ZM26.0451 18.4528C26.047 18.473 26.0459 18.4523 26.045 18.3392C26.0442 18.2479 26.0434 18.1204 26.0427 17.9686C26.0412 17.6652 26.0398 17.2667 26.0386 16.8699C26.0374 16.4732 26.0363 16.0785 26.0356 15.783C26.0353 15.6353 26.035 15.5123 26.0348 15.4263C26.0347 15.3833 26.0347 15.3496 26.0346 15.3266C26.0346 15.315 26.0346 15.3062 26.0346 15.3003C26.0345 15.2973 26.0345 15.2951 26.0345 15.2936C26.0345 15.2928 26.0345 15.2922 26.0345 15.2919C26.0345 15.2917 26.0345 15.2915 26.0345 15.2914C26.0345 15.2914 26.0345 15.2913 26.0345 15.2913C26.0345 15.2913 26.0345 15.2913 25.5345 15.2923C25.0345 15.2933 25.0345 15.2934 25.0345 15.2934C25.0345 15.2934 25.0345 15.2934 25.0345 15.2935C25.0345 15.2936 25.0345 15.2937 25.0345 15.2939C25.0345 15.2943 25.0345 15.2949 25.0345 15.2956C25.0345 15.2971 25.0345 15.2994 25.0346 15.3024C25.0346 15.3083 25.0346 15.3172 25.0346 15.3287C25.0347 15.3517 25.0347 15.3855 25.0348 15.4285C25.035 15.5146 25.0353 15.6376 25.0356 15.7854C25.0364 16.081 25.0374 16.4759 25.0386 16.873C25.0398 17.2699 25.0412 17.6692 25.0427 17.9736C25.0434 18.1257 25.0442 18.2546 25.045 18.3478C25.0456 18.4192 25.0461 18.5113 25.0497 18.5481L26.0451 18.4528ZM22.4294 15.4919C21.9294 15.4905 21.9294 15.4905 21.9294 15.4905C21.9294 15.4905 21.9294 15.4906 21.9294 15.4906C21.9294 15.4907 21.9294 15.4908 21.9294 15.491C21.9294 15.4914 21.9294 15.4919 21.9294 15.4926C21.9294 15.494 21.9294 15.4962 21.9294 15.4989C21.9294 15.5045 21.9294 15.5128 21.9293 15.5236C21.9293 15.5451 21.9292 15.5767 21.9291 15.617C21.9289 15.6976 21.9286 15.8127 21.9283 15.951C21.9276 16.2278 21.9269 16.5975 21.9264 16.9694C21.9258 17.3413 21.9256 17.7157 21.926 18.0017C21.9262 18.1446 21.9265 18.2662 21.9271 18.3545C21.9274 18.3985 21.9277 18.4354 21.9281 18.463C21.9283 18.4718 21.9285 18.5223 21.9329 18.5593L22.926 18.4417C22.9293 18.47 22.9287 18.4893 22.928 18.4475C22.9277 18.4244 22.9273 18.391 22.9271 18.348C22.9265 18.2623 22.9262 18.1428 22.926 18.0004C22.9256 17.7158 22.9258 17.3424 22.9264 16.9708C22.9269 16.5993 22.9276 16.2299 22.9283 15.9534C22.9286 15.8151 22.9289 15.7001 22.9291 15.6196C22.9292 15.5794 22.9293 15.5478 22.9293 15.5263C22.9294 15.5155 22.9294 15.5072 22.9294 15.5017C22.9294 15.4989 22.9294 15.4968 22.9294 15.4954C22.9294 15.4947 22.9294 15.4942 22.9294 15.4938C22.9294 15.4936 22.9294 15.4935 22.9294 15.4934C22.9294 15.4934 22.9294 15.4933 22.9294 15.4933C22.9294 15.4933 22.9294 15.4933 22.4294 15.4919ZM0.930042 20.3403C0.92752 20.3387 0.937182 20.3444 0.951122 20.3627C0.96477 20.3806 0.988025 20.4182 0.998712 20.4761L0.0152943 20.6575C0.060216 20.9011 0.224257 21.0717 0.375341 21.1724L0.930042 20.3403ZM0.998712 20.4761C1.00692 20.5206 1.00657 20.5617 1.00552 20.5291C1.00526 20.521 1.00495 20.5074 1.00463 20.4872C1.00398 20.4473 1.0034 20.3894 1.00289 20.3152C1.00188 20.1671 1.00117 19.9589 1.00071 19.7101C0.999793 19.2128 0.999862 18.5563 1.00036 17.9018C1.00087 17.2474 1.0018 16.5953 1.00261 16.1068C1.00301 15.8625 1.00339 15.6591 1.00366 15.5169C1.00379 15.4457 1.00391 15.3898 1.00398 15.3518C1.00402 15.3327 1.00405 15.3181 1.00407 15.3083C1.00408 15.3034 1.00409 15.2996 1.00409 15.2972C1.0041 15.2959 1.0041 15.295 1.0041 15.2943C1.0041 15.294 1.0041 15.2938 1.0041 15.2936C1.0041 15.2935 1.0041 15.2935 1.0041 15.2935C1.0041 15.2934 1.0041 15.2934 0.504102 15.2923C0.00410336 15.2913 0.00410333 15.2913 0.00410324 15.2913C0.00410315 15.2914 0.00410303 15.2915 0.00410286 15.2915C0.00410253 15.2917 0.00410205 15.2919 0.00410137 15.2922C0.00410005 15.2929 0.00409809 15.2938 0.00409546 15.2951C0.00409028 15.2976 0.00408253 15.3013 0.00407237 15.3062C0.0040521 15.3161 0.00402224 15.3307 0.00398386 15.3497C0.00390711 15.3879 0.00379637 15.4438 0.00366035 15.5149C0.00338832 15.6573 0.00301513 15.8607 0.00261056 16.1051C0.00180149 16.5938 0.000866771 17.2462 0.000364482 17.9011C-0.000137687 18.5558 -0.000207901 19.2133 0.000713885 19.712C0.00117454 19.9612 0.00188407 20.1714 0.00291803 20.3221C0.00343361 20.3972 0.00403777 20.4587 0.00475553 20.5033C0.00510997 20.5253 0.00552189 20.5451 0.00603327 20.5611C0.00628084 20.5688 0.00662991 20.5782 0.00715998 20.5876C0.00741976 20.5923 0.00785568 20.5993 0.00856858 20.6075C0.00893974 20.6118 0.0106522 20.6323 0.0152944 20.6575L0.998712 20.4761ZM15.0659 24.3865L11.5032 26.4664L12.0074 27.33L15.5701 25.2501L15.0659 24.3865ZM13.5211 9.89785C13.522 9.49455 13.5238 9.04628 13.5254 8.67134L12.5254 8.66719C12.5238 9.04193 12.522 9.49124 12.5211 9.89574L13.5211 9.89785ZM13.5254 8.67102L13.5254 8.66939L12.5254 8.66588L12.5254 8.66751L13.5254 8.67102ZM13.5254 8.66971C13.5267 8.34191 13.5279 8.06899 13.5279 7.93327H12.5279C12.5279 8.06632 12.5268 8.33638 12.5254 8.66556L13.5254 8.66971ZM34.9723 7.92529C34.4723 7.92227 34.4723 7.92228 34.4723 7.92229C34.4723 7.9223 34.4723 7.92231 34.4723 7.92233C34.4723 7.92237 34.4723 7.92243 34.4723 7.9225C34.4723 7.92265 34.4723 7.92288 34.4723 7.92317C34.4723 7.92377 34.4723 7.92465 34.4723 7.92582C34.4723 7.92815 34.4722 7.93163 34.4722 7.9362C34.4722 7.94534 34.4721 7.95885 34.472 7.97636C34.4718 8.01138 34.4715 8.0624 34.4711 8.12643C34.4704 8.25448 34.4695 8.4346 34.4685 8.64289C34.4666 9.05932 34.4646 9.58887 34.4643 10.0401L35.4643 10.0408C35.4646 9.59156 35.4666 9.06352 35.4685 8.6475C35.4695 8.43955 35.4704 8.25972 35.4711 8.13188C35.4715 8.06797 35.4718 8.01706 35.472 7.98213C35.4721 7.96467 35.4721 7.9512 35.4722 7.94211C35.4722 7.93756 35.4722 7.93411 35.4723 7.93179C35.4723 7.93064 35.4723 7.92976 35.4723 7.92918C35.4723 7.92889 35.4723 7.92867 35.4723 7.92853C35.4723 7.92845 35.4723 7.9284 35.4723 7.92836C35.4723 7.92835 35.4723 7.92833 35.4723 7.92832C35.4723 7.92832 35.4723 7.92831 34.9723 7.92529ZM36.4274 26.4371L33.1034 24.4934L32.5987 25.3566L35.9226 27.3003L36.4274 26.4371Z" fill="#393D45"></path>
	<path d="M15.3179 22.9546C15.3179 22.9546 15.3434 26.1018 15.3695 27.3326C15.3948 28.5261 16.242 29.7148 17.9114 30.6245C21.3021 32.4722 26.8006 32.4689 30.1924 30.6169C31.9013 29.6839 32.6985 28.5539 32.6859 27.3324C32.676 26.3827 32.6859 23.4654 32.6859 23.4654" stroke="#393D45"></path>
	<path d="M13.1429 7.73452L12.8903 7.30303L12.8777 7.3104L12.8655 7.3185L13.1429 7.73452ZM23.6844 1.56314L23.4874 1.10357L23.4587 1.11587L23.4318 1.13165L23.6844 1.56314ZM13.1724 8.11839L12.895 8.53441L12.9078 8.54292L12.9211 8.55063L13.1724 8.11839ZM23.6844 14.2307L23.9618 13.8147L23.949 13.8062L23.9357 13.7985L23.6844 14.2307ZM24.334 14.2602L24.531 14.7198L24.5597 14.7075L24.5866 14.6917L24.334 14.2602ZM34.8756 8.08886L35.1282 8.52038L35.1328 8.51761L34.8756 8.08886ZM34.8165 7.70499L34.5641 8.13664L34.5684 8.13912L34.8165 7.70499ZM24.3636 1.59267L24.616 1.16103L24.6116 1.15855L24.3636 1.59267ZM25.6628 15.2642L25.8864 15.7114L25.9012 15.704L25.9154 15.6957L25.6628 15.2642ZM36.2043 9.09282L36.0074 8.63324L35.9787 8.64554L35.9517 8.66132L36.2043 9.09282ZM25.7218 15.6481L25.9742 15.2164L25.9699 15.2139L25.7218 15.6481ZM36.1748 21.7604L36.4521 21.3444L36.4399 21.3362L36.4272 21.3288L36.1748 21.7604ZM36.8244 21.7899L37.0214 22.2495L37.0498 22.2373L37.0765 22.2217L36.8244 21.7899ZM47.3955 15.6185L47.6476 16.0504L47.6527 16.0473L47.3955 15.6185ZM47.3364 15.2347L47.084 15.6663L47.0884 15.6688L47.3364 15.2347ZM36.8835 9.12235L37.1359 8.6907L37.1315 8.68822L36.8835 9.12235ZM7.83242 11.0317L7.57928 10.6005L6.83642 11.0366L7.58356 11.4653L7.83242 11.0317ZM11.135 9.09282L10.938 8.63324L10.909 8.64567L10.8818 8.66163L11.135 9.09282ZM7.83654 11.034L8.08618 10.6008L8.0854 10.6004L7.83654 11.034ZM7.8362 12.1833L7.5862 11.7503H7.5862L7.8362 12.1833ZM5.85626 12.1918L6.10128 11.756L5.85086 11.6152L5.60312 11.7606L5.85626 12.1918ZM0.622937 15.2642L0.846543 15.7114L0.861579 15.7039L0.876076 15.6954L0.622937 15.2642ZM0.652466 15.6481L0.375116 16.0641L0.387366 16.0723L0.400075 16.0797L0.652466 15.6481ZM5.77776 18.6451L5.52537 19.0767L5.77576 19.2231L6.02715 19.0784L5.77776 18.6451ZM6.598 18.173L6.84739 18.6064L6.848 18.606L6.598 18.173ZM7.5047 18.1724L7.75434 17.7392L7.75433 17.7392L7.5047 18.1724ZM7.50454 18.6954L7.75449 19.1284L7.75455 19.1284L7.50454 18.6954ZM7.48124 18.7082L7.24952 18.2651L7.24028 18.27L7.23124 18.2752L7.48124 18.7082ZM6.67842 19.1717L6.42842 18.7387L5.68319 19.169L6.42603 19.6033L6.67842 19.1717ZM11.1054 21.7604L11.3828 21.3444L11.3705 21.3362L11.3578 21.3288L11.1054 21.7604ZM11.755 21.7899L11.952 22.2495L11.9804 22.2373L12.0071 22.2217L11.755 21.7899ZM17.2465 18.584L17.4986 19.0158L17.9633 18.7445L17.6586 18.3009L17.2465 18.584ZM17.5604 17.7094L17.8104 18.1424L17.8104 18.1424L17.5604 17.7094ZM19.0619 17.5242L18.9543 18.0124L19.1452 18.0545L19.314 17.956L19.0619 17.5242ZM22.3261 15.6185L22.5782 16.0504L22.5834 16.0473L22.3261 15.6185ZM22.2671 15.2347L22.0147 15.6663L22.019 15.6688L22.2671 15.2347ZM11.8141 9.12235L12.0665 8.6907L12.0622 8.68822L11.8141 9.12235ZM13.3955 8.16602L23.937 1.99464L23.4318 1.13165L12.8903 7.30303L13.3955 8.16602ZM13.4497 7.70236C13.4379 7.69449 13.4475 7.69833 13.464 7.71979C13.4812 7.74206 13.513 7.79317 13.5217 7.87124C13.531 7.95502 13.5091 8.0307 13.4766 8.08497C13.4618 8.1096 13.447 8.12632 13.4369 8.13623C13.427 8.14607 13.4204 8.15042 13.4202 8.15055L12.8655 7.3185C12.6948 7.43228 12.4916 7.65559 12.5278 7.98167C12.5594 8.26587 12.7589 8.44368 12.895 8.53441L13.4497 7.70236ZM23.9357 13.7985L13.4237 7.68615L12.9211 8.55063L23.4331 14.663L23.9357 13.7985ZM24.1371 13.8007C24.1019 13.8158 24.0566 13.8246 24.0143 13.8232C23.9706 13.8218 23.956 13.8109 23.9618 13.8147L23.4071 14.6467C23.7602 14.8821 24.2126 14.8563 24.531 14.7198L24.1371 13.8007ZM34.623 7.65737L24.0814 13.8287L24.5866 14.6917L35.1282 8.52035L34.623 7.65737ZM34.5684 8.13912C34.5882 8.15041 34.4969 8.10502 34.4817 7.96035C34.4645 7.79704 34.5629 7.69335 34.6183 7.66011L35.1328 8.51761C35.3358 8.39579 35.5081 8.15922 35.4762 7.85565C35.4462 7.57072 35.2515 7.37769 35.0646 7.27087L34.5684 8.13912ZM24.1112 2.0243L34.5641 8.13662L35.0689 7.27337L24.6159 1.16105L24.1112 2.0243ZM23.8814 2.02272C23.9621 1.98811 24.0612 1.99579 24.1155 2.02679L24.6116 1.15855C24.2525 0.953325 23.8201 0.961009 23.4874 1.10357L23.8814 2.02272ZM25.9154 15.6957L36.4569 9.52431L35.9517 8.66132L25.4102 14.8327L25.9154 15.6957ZM25.9699 15.2139C25.9317 15.1921 26.0198 15.2252 26.0422 15.3671C26.0549 15.4474 26.0389 15.5337 25.9947 15.6059C25.9538 15.6727 25.9049 15.7021 25.8864 15.7114L25.4392 14.817C25.213 14.9301 25.0004 15.1805 25.0545 15.523C25.099 15.8052 25.3053 15.9859 25.4738 16.0822L25.9699 15.2139ZM36.4272 21.3288L25.9742 15.2164L25.4695 16.0797L35.9224 22.192L36.4272 21.3288ZM36.6275 21.3303C36.5923 21.3454 36.547 21.3543 36.5047 21.3529C36.461 21.3515 36.4464 21.3405 36.4521 21.3444L35.8975 22.1764C36.2506 22.4118 36.7029 22.386 37.0214 22.2495L36.6275 21.3303ZM47.1434 15.1867L36.5723 21.3581L37.0765 22.2217L47.6476 16.0503L47.1434 15.1867ZM47.0884 15.6688C47.1081 15.6801 47.0168 15.6347 47.0016 15.49C46.9844 15.3267 47.0829 15.223 47.1382 15.1898L47.6527 16.0473C47.8558 15.9255 48.028 15.6889 47.9961 15.3853C47.9661 15.1004 47.7714 14.9074 47.5845 14.8005L47.0884 15.6688ZM36.6311 9.55397L47.084 15.6663L47.5888 14.803L37.1359 8.69072L36.6311 9.55397ZM36.4013 9.55239C36.482 9.51778 36.5812 9.52547 36.6354 9.55647L37.1315 8.68822C36.7724 8.483 36.34 8.49068 36.0074 8.63324L36.4013 9.55239ZM8.08556 11.4628L11.3881 9.524L10.8818 8.66163L7.57928 10.6005L8.08556 11.4628ZM8.0854 10.6004L8.08127 10.598L7.58356 11.4653L7.58768 11.4677L8.0854 10.6004ZM8.08621 12.6164C8.4522 12.405 8.74891 12.0583 8.74905 11.6086C8.74918 11.1586 8.45239 10.8118 8.08618 10.6008L7.5869 11.4673C7.77083 11.5732 7.74904 11.6422 7.74905 11.6083C7.74906 11.5745 7.77053 11.6439 7.5862 11.7503L8.08621 12.6164ZM5.61124 12.6277C5.9795 12.8347 6.42806 12.9237 6.85009 12.922C7.27198 12.9203 7.72 12.8278 8.08621 12.6164L7.5862 11.7503C7.40627 11.8542 7.13987 11.9208 6.84609 11.922C6.55244 11.9232 6.2841 11.8587 6.10128 11.756L5.61124 12.6277ZM0.876076 15.6954L6.1094 12.623L5.60312 11.7606L0.369798 14.833L0.876076 15.6954ZM0.929816 15.232C0.91169 15.22 0.988243 15.2613 1.00208 15.3927C1.00976 15.4657 0.993234 15.544 0.951537 15.6105C0.91228 15.6731 0.865911 15.7017 0.846543 15.7114L0.399331 14.817C0.168772 14.9323 -0.0264077 15.1746 0.0075722 15.4974C0.0361712 15.7691 0.216073 15.9581 0.375116 16.0641L0.929816 15.232ZM6.03015 18.2134L0.904856 15.2164L0.400075 16.0797L5.52537 19.0767L6.03015 18.2134ZM6.3486 17.7396L5.52836 18.2117L6.02715 19.0784L6.84739 18.6064L6.3486 17.7396ZM7.75433 17.7392C7.53521 17.6129 7.27955 17.5642 7.05105 17.5644C6.82252 17.5646 6.56697 17.6136 6.34799 17.74L6.848 18.606C6.87945 18.5879 6.95207 18.5645 7.0517 18.5644C7.15136 18.5643 7.22384 18.5876 7.25506 18.6056L7.75433 17.7392ZM7.75455 19.1284C7.97058 19.0037 8.1923 18.7703 8.1924 18.4339C8.1925 18.0973 7.97064 17.8638 7.75434 17.7392L7.25506 18.6056C7.28909 18.6252 7.19236 18.5809 7.1924 18.4336C7.19245 18.2866 7.28892 18.2425 7.25454 18.2624L7.75455 19.1284ZM7.71295 19.1513C7.72691 19.144 7.74077 19.1364 7.75449 19.1284L7.2546 18.2624C7.25307 18.2632 7.25138 18.2642 7.24952 18.2651L7.71295 19.1513ZM6.92842 19.6047L7.73124 19.1412L7.23124 18.2752L6.42842 18.7387L6.92842 19.6047ZM11.3578 21.3288L6.93081 18.7401L6.42603 19.6033L10.853 22.192L11.3578 21.3288ZM11.5581 21.3303C11.5229 21.3454 11.4776 21.3543 11.4353 21.3529C11.3916 21.3515 11.377 21.3405 11.3828 21.3444L10.8281 22.1764C11.1812 22.4118 11.6336 22.386 11.952 22.2495L11.5581 21.3303ZM16.9944 18.1522L11.503 21.3581L12.0071 22.2217L17.4986 19.0158L16.9944 18.1522ZM17.6586 18.3009C17.6464 18.2831 17.6466 18.2763 17.6473 18.2806C17.6481 18.2857 17.6469 18.2897 17.6474 18.2881C17.6493 18.2826 17.6754 18.2203 17.8104 18.1424L17.3104 17.2764C17.0354 17.4351 16.8043 17.6641 16.7015 17.9637C16.5935 18.2788 16.6523 18.6022 16.8343 18.8671L17.6586 18.3009ZM17.8104 18.1424C18.0871 17.9826 18.5465 17.9225 18.9543 18.0124L19.1696 17.0359C18.5703 16.9038 17.8457 16.9673 17.3104 17.2764L17.8104 18.1424ZM22.074 15.1867L18.8098 17.0924L19.314 17.956L22.5782 16.0503L22.074 15.1867ZM22.019 15.6688C22.0387 15.6801 21.9474 15.6347 21.9322 15.49C21.915 15.3267 22.0135 15.223 22.0689 15.1898L22.5834 16.0473C22.7864 15.9255 22.9587 15.6889 22.9267 15.3853C22.8967 15.1004 22.7021 14.9074 22.5151 14.8005L22.019 15.6688ZM11.5617 9.55397L22.0147 15.6663L22.5194 14.803L12.0665 8.69072L11.5617 9.55397ZM11.3319 9.55239C11.4127 9.51778 11.5118 9.52547 11.566 9.55647L12.0622 8.68822C11.703 8.483 11.2706 8.49068 10.938 8.63324L11.3319 9.55239Z" fill="#393D45"></path>
	<path d="M7.54528 23.2807C7.29493 23.1365 6.88899 23.1367 6.63858 23.2813C6.39228 23.4235 6.14552 23.5649 5.89893 23.7066L6.87644 24.1891L7.52182 23.8165C7.52972 23.8124 7.5375 23.8081 7.54512 23.8037C7.79554 23.6591 7.79561 23.425 7.54528 23.2807Z" stroke="#393D45"></path>
	<path fill-rule="evenodd" clip-rule="evenodd" d="M35.7945 10.9745C36.2358 10.7418 36.7642 10.7418 37.2055 10.9745C37.5982 11.2072 37.5982 11.6 37.2055 11.8472C36.7642 12.08 36.2358 12.08 35.7945 11.8472C35.4018 11.6048 35.4018 11.2266 35.7945 10.9745Z" fill="#007CFC"></path>
	<path fill-rule="evenodd" clip-rule="evenodd" d="M35.7945 18.472C36.2358 18.2392 36.7642 18.2392 37.2055 18.472C37.5982 18.7047 37.5982 19.0974 37.2055 19.3447C36.7642 19.5774 36.2358 19.5774 35.7945 19.3447C35.4018 19.1023 35.4018 18.7241 35.7945 18.472Z" fill="#007CFC"></path>
	<path fill-rule="evenodd" clip-rule="evenodd" d="M28.7945 15.0677C29.2358 14.8349 29.7642 14.8349 30.2055 15.0677C30.5982 15.3004 30.5982 15.6931 30.2055 15.9404C29.7642 16.1731 29.2358 16.1731 28.7945 15.9404C28.4018 15.698 28.4018 15.3198 28.7945 15.0677Z" fill="#007CFC"></path>
	<path fill-rule="evenodd" clip-rule="evenodd" d="M42.7945 15.0677C43.2358 14.8349 43.7642 14.8349 44.2055 15.0677C44.5982 15.3004 44.5982 15.6931 44.2055 15.9404C43.7642 16.1731 43.2358 16.1731 42.7945 15.9404C42.4018 15.698 42.4018 15.3198 42.7945 15.0677Z" fill="#007CFC"></path>
	<path d="M8.13288 14.7279C8.07122 14.7629 7.99561 14.7627 7.93416 14.7273L6.68325 14.0065C6.61645 13.968 6.6165 13.8715 6.68334 13.8331L10.6534 11.5508C10.7147 11.5156 10.79 11.5154 10.8515 11.5501L12.137 12.2769C12.2047 12.3151 12.2048 12.4125 12.1373 12.4509L8.13288 14.7279Z" fill="#007CFC"></path>
	<path d="M10.0779 15.8414C10.0162 15.8765 9.94043 15.8763 9.87893 15.8407L8.62987 15.1181C8.5632 15.0795 8.56333 14.9832 8.63012 14.9448L12.5983 12.6645C12.6596 12.6293 12.7349 12.629 12.7964 12.6638L14.0819 13.3906C14.1495 13.4288 14.1496 13.5261 14.0821 13.5645L10.0779 15.8414Z" fill="#007CFC"></path>
	<path d="M12.0868 16.976C12.0255 17.011 11.9502 17.011 11.8889 16.9761L10.6285 16.2588C10.5613 16.2206 10.561 16.1238 10.628 16.0852L14.6006 13.7979C14.6625 13.7623 14.7386 13.7623 14.8004 13.798L16.0706 14.5313C16.1374 14.5699 16.1372 14.6666 16.0701 14.7048L12.0868 16.976Z" fill="#007CFC"></path>
	<path d="M14.0517 18.0999C13.9901 18.1351 13.9145 18.135 13.853 18.0997L12.59 17.3749C12.5231 17.3365 12.5231 17.2399 12.5901 17.2014L16.5657 14.9215C16.6271 14.8862 16.7027 14.8862 16.7643 14.9213L18.0402 15.6495C18.1075 15.6879 18.1075 15.7848 18.0402 15.8232L14.0517 18.0999Z" fill="#007CFC"></path>
	<path d="M24.2031 10.8532C24.0492 10.9406 23.8604 10.9401 23.707 10.8519L18.4617 7.83636C18.328 7.75946 18.328 7.56648 18.4617 7.48958L23.707 4.47404C23.8604 4.3858 24.0492 4.38531 24.2031 4.47275L29.5136 7.48906C29.6486 7.56572 29.6486 7.76022 29.5136 7.83688L24.2031 10.8532Z" fill="#007CFC"></path>
	<path fill-rule="evenodd" clip-rule="evenodd" d="M17.9137 19.5479C21.3055 17.6959 26.8039 17.6925 30.1947 19.5402C33.5855 21.3879 33.5845 24.3871 30.1927 26.239C26.8008 28.0909 21.3023 28.0943 17.9116 26.2466C14.5208 24.3988 14.5218 21.3997 17.9137 19.5479Z" stroke="#393D45"></path>
	<path d="M26.825 24.389C27.4992 23.941 27.4992 23.1942 26.8863 22.7462C26.7025 22.5968 26.4573 22.5222 26.2734 22.5222C26.7637 22.0741 26.7025 21.402 26.1509 20.954C25.4767 20.5059 24.4348 20.5059 23.8219 20.954C23.7606 20.8793 23.6994 20.8793 23.6381 20.8046C23.0865 20.4313 22.1672 20.4313 21.5543 20.8046C20.8801 21.178 20.8801 21.7754 21.3704 22.2235L24.5574 24.4637C25.1703 24.8371 26.1509 24.8371 26.825 24.389Z" fill="#007CFC"></path>
	<defs>
		<linearGradient id="optimized-cloud-controlpaint0_linear_3533_46400" x1="1.9458" y1="39.2112" x2="46.0728" y2="39.2112" gradientUnits="userSpaceOnUse">
			<stop stop-color="#B2CFFD"></stop>
			<stop offset="1" stop-color="#D3E3FE"></stop>
		</linearGradient>
		<linearGradient id="optimized-cloud-controlpaint1_linear_3533_46400" x1="1.4458" y1="39.2112" x2="46.5728" y2="39.2112" gradientUnits="userSpaceOnUse">
			<stop stop-color="#B2CFFD"></stop>
			<stop offset="1" stop-color="#D3E3FE"></stop>
		</linearGradient>
	</defs>
</svg>