<svg width="136" height="136" viewBox="0 0 136 136" fill="none" xmlns="http://www.w3.org/2000/svg">
<rect x="4" y="4" width="128" height="128" rx="64" fill="#9146FF"/>
<path d="M98.628 69.6226L87.4851 80.7655H76.3422L66.5922 90.5155V80.7655H54.0565V38.9798H98.628V69.6226Z" fill="white"/>
<path d="M51.2706 33.4084L37.342 47.337V97.4798H54.0563V111.408L67.9849 97.4798H79.1278L104.199 72.4084V33.4084H51.2706ZM98.6278 69.6227L87.4849 80.7655H76.342L66.592 90.5155V80.7655H54.0563V38.9798H98.6278V69.6227Z" fill="black"/>
<path d="M90.2705 48.7298H84.699V65.4441H90.2705V48.7298Z" fill="black"/>
<path d="M74.949 48.7298H69.3776V65.4441H74.949V48.7298Z" fill="black"/>
<rect x="4" y="4" width="128" height="128" rx="64" stroke="black" stroke-width="8"/>
</svg>
