<svg width="136" height="136" viewBox="0 0 136 136" fill="none" xmlns="http://www.w3.org/2000/svg">
<rect x="4" y="4" width="128" height="128" rx="64" fill="url(#paint0_linear_18_1047)"/>
<path d="M31.6049 102.907L36.7496 84.2255C33.5689 78.742 31.9004 72.532 31.9178 66.1836C31.9178 46.2909 48.186 30.1172 68.1564 30.1172C77.8548 30.1172 86.9622 33.8709 93.7928 40.6863C100.641 47.5018 104.412 56.5659 104.395 66.2009C104.395 86.0937 88.1268 102.267 68.139 102.267H68.1216C62.0558 102.267 56.0942 100.745 50.7931 97.8737L31.6049 102.907ZM51.7143 91.3523L52.8093 92.0096C57.4325 94.7427 62.7336 96.1785 68.139 96.1957H68.1564C84.7549 96.1957 98.277 82.7552 98.277 66.2182C98.277 58.2092 95.1485 50.6846 89.4651 45.0108C83.7816 39.3371 76.2036 36.2234 68.1564 36.2234C51.5579 36.2061 38.0358 49.6467 38.0358 66.1836C38.0358 71.8401 39.6174 77.3582 42.6416 82.1324L43.3542 83.2741L40.3126 94.3276L51.7143 91.3523Z" fill="white"/>
<path d="M32.8738 101.645L37.8446 83.6028C34.7683 78.3269 33.1519 72.3244 33.1519 66.2009C33.1693 47.0001 48.864 31.38 68.1565 31.38C77.5246 31.38 86.3019 35.0125 92.9065 41.5858C99.5111 48.1591 103.144 56.9119 103.144 66.2182C103.144 85.4191 87.4316 101.039 68.1565 101.039H68.1391C62.2818 101.039 56.5288 99.5689 51.4189 96.8012L32.8738 101.645Z" fill="url(#paint1_linear_18_1047)"/>
<path d="M31.6049 102.907L36.7496 84.2255C33.5689 78.742 31.9004 72.532 31.9178 66.1836C31.9178 46.2909 48.186 30.1172 68.1564 30.1172C77.8548 30.1172 86.9622 33.8709 93.7928 40.6863C100.641 47.5018 104.412 56.5659 104.395 66.2009C104.395 86.0937 88.1268 102.267 68.139 102.267H68.1216C62.0558 102.267 56.0942 100.745 50.7931 97.8737L31.6049 102.907ZM51.7143 91.3523L52.8093 92.0096C57.4325 94.7427 62.7336 96.1785 68.139 96.1957H68.1564C84.7549 96.1957 98.277 82.7552 98.277 66.2182C98.277 58.2092 95.1485 50.6846 89.4651 45.0108C83.7816 39.3371 76.2036 36.2234 68.1564 36.2234C51.5579 36.2061 38.0358 49.6467 38.0358 66.1836C38.0358 71.8401 39.6174 77.3582 42.6416 82.1324L43.3542 83.2741L40.3126 94.3276L51.7143 91.3523Z" fill="url(#paint2_linear_18_1047)"/>
<path fill-rule="evenodd" clip-rule="evenodd" d="M59.1008 51.0998C58.423 49.5948 57.7104 49.5602 57.0673 49.5429C56.5459 49.5256 55.9375 49.5256 55.3292 49.5256C54.7209 49.5256 53.7476 49.7505 52.9133 50.65C52.079 51.5495 49.75 53.7291 49.75 58.1747C49.75 62.603 53.0002 66.8929 53.4521 67.4983C53.904 68.1037 59.7265 77.4966 68.9209 81.1119C76.5683 84.1217 78.1326 83.5163 79.7838 83.3606C81.4349 83.2049 85.137 81.1811 85.9018 79.0707C86.6491 76.9603 86.6491 75.1613 86.4232 74.7808C86.1972 74.4002 85.5889 74.1753 84.6851 73.7256C83.7813 73.2758 79.3319 71.0963 78.4976 70.7849C77.6633 70.4909 77.055 70.3352 76.4641 71.2347C75.8557 72.1342 74.1177 74.158 73.5963 74.7635C73.0748 75.3689 72.536 75.4381 71.6323 74.9884C70.7285 74.5386 67.8085 73.5872 64.3498 70.5082C61.6558 68.121 59.8308 65.1631 59.3094 64.2636C58.788 63.3641 59.2572 62.8797 59.7091 62.43C60.1089 62.0321 60.6129 61.3748 61.0648 60.8559C61.5167 60.3369 61.6731 59.9564 61.9686 59.3509C62.2641 58.7455 62.125 58.2266 61.8991 57.7768C61.6731 57.3443 59.9003 52.8815 59.1008 51.0998Z" fill="white"/>
<rect x="4" y="4" width="128" height="128" rx="64" stroke="black" stroke-width="8"/>
<defs>
<linearGradient id="paint0_linear_18_1047" x1="67.9969" y1="127.994" x2="67.9969" y2="7.9958" gradientUnits="userSpaceOnUse">
<stop stop-color="#20B038"/>
<stop offset="1" stop-color="#60D66A"/>
</linearGradient>
<linearGradient id="paint1_linear_18_1047" x1="68.0069" y1="101.641" x2="68.0069" y2="31.3775" gradientUnits="userSpaceOnUse">
<stop stop-color="#20B038"/>
<stop offset="1" stop-color="#60D66A"/>
</linearGradient>
<linearGradient id="paint2_linear_18_1047" x1="68.0071" y1="102.901" x2="68.0071" y2="30.1172" gradientUnits="userSpaceOnUse">
<stop stop-color="#F9F9F9"/>
<stop offset="1" stop-color="white"/>
</linearGradient>
</defs>
</svg>
