<svg width="50" height="50" viewBox="0 0 50 50" fill="none" xmlns="http://www.w3.org/2000/svg">
    <path d="M34.1109 26.3606C41.372 26.3606 47.3175 20.4677 47.3175 13.154C47.3179 5.89289 41.3722 0 34.1109 0C26.8496 0 20.9043 5.89289 20.9043 13.2066C20.9043 20.4677 26.85 26.3606 34.1109 26.3606ZM32.8483 6.99792V5.68252C32.8483 5.41937 33.0586 5.15621 33.3746 5.15621H34.8479C35.111 5.15621 35.3742 5.36652 35.3742 5.68252V6.9454C36.8998 7.1557 38.0575 8.31332 38.2152 9.8918C38.2152 10.0496 38.1628 10.155 38.1099 10.2603C38.0046 10.3656 37.8468 10.4181 37.7414 10.4181L36.2157 10.4177C35.9526 10.4177 35.7423 10.2599 35.7423 10.0493C35.6898 9.68076 35.3213 9.41797 34.9532 9.41797H33.6378C32.9537 9.41797 32.3749 9.89143 32.3224 10.5231C32.2699 10.8916 32.3749 11.2072 32.638 11.47C32.8483 11.7332 33.2168 11.891 33.5849 11.891H34.6901C35.7423 11.891 36.7421 12.3644 37.4787 13.101C38.2153 13.8901 38.5309 14.9428 38.4256 15.995C38.2678 17.5736 37.0577 18.889 35.3739 19.2571V20.5725C35.3739 20.8357 35.1636 21.0988 34.8476 21.0988H33.3743C33.1112 21.0988 32.848 20.8885 32.848 20.5725V19.3096C31.3223 19.0993 30.1647 17.9417 30.0069 16.3632C30.0069 16.2054 30.0594 16.1001 30.1123 15.9947C30.2176 15.8894 30.3754 15.8369 30.4808 15.8369L32.0064 15.8373C32.2696 15.8373 32.4274 15.9951 32.4799 16.2058C32.5852 16.5743 32.9009 16.8371 33.269 16.8371H34.5844C35.2685 16.8371 35.8473 16.3636 35.8998 15.7319C35.9523 15.3634 35.8473 15.0478 35.5841 14.785C35.3738 14.5219 35.0054 14.3641 34.6372 14.3641H33.6903C31.6908 14.3641 30.0073 12.8908 29.7967 10.9966C29.6389 9.10247 30.9542 7.36605 32.8484 6.99792H32.8483Z" fill="#B476E5"></path>
    <path d="M3.22527 42.356C2.85678 42.7769 2.96212 43.4082 3.38309 43.7767L11.0123 49.7749C11.4333 50.1434 12.0645 50.0381 12.433 49.6171L15.6951 45.5127L6.43482 38.252L3.22527 42.356Z" fill="#47BDFF"></path>
    <path d="M44.2658 29.2021L37.11 31.3065V31.8329C36.9522 33.8324 35.479 35.5159 33.5323 35.8844L33.0585 35.9369C30.4277 36.4103 27.7969 36.7259 25.1135 36.7259L22.9562 36.7784C22.2721 36.7784 21.7461 36.2521 21.7461 35.5684C21.7461 34.8842 22.2724 34.3583 22.9562 34.3583L25.1135 34.3058C27.639 34.2533 30.1649 33.9902 32.6374 33.5167L33.1109 33.4114C34.0053 33.2536 34.6895 32.4645 34.7419 31.5696C34.7944 31.0433 34.5841 30.5174 34.2156 30.0964C33.8471 29.6754 33.3736 29.4651 32.7949 29.4123L21.4298 28.781C20.1669 28.7285 18.9043 29.0441 17.8521 29.7808L8.17078 36.5681L17.8521 44.1973L27.4282 45.3024C29.1121 45.5127 30.7956 45.0392 32.111 44.0395L46.37 33.3585C46.8963 32.9375 47.2119 32.3587 47.3169 31.6746C47.3693 30.9905 47.159 30.3592 46.7381 29.8857C46.1064 29.202 45.1595 28.9388 44.2651 29.202L44.2658 29.2021Z" fill="#47BDFF"></path>
</svg>