<svg width="50" height="50" viewBox="0 0 50 50" fill="none" xmlns="http://www.w3.org/2000/svg">
    <g clip-path="url(#clip0_267_1396)">
        <path d="M29.5038 25.4844C27.404 25.4844 25.5311 26.2789 24.0552 27.5842C22.6364 26.2789 20.7069 25.4844 18.6067 25.4844C14.1234 25.4844 10.4341 29.1166 10.4341 33.657C10.4341 42.7378 21.728 50.002 23.9982 50.002C26.2681 50.002 37.5623 42.7376 37.5623 33.657C37.6193 29.1166 33.9871 25.4844 29.5037 25.4844H29.5038ZM32.9088 38.3107H29.5604C29.2766 38.3107 29.0497 38.1971 28.8795 37.9702L27.9714 36.7216L26.3823 43.532C26.3823 43.8724 26.0418 44.1563 25.6443 44.1563H25.5877C25.1903 44.1563 24.8498 43.8724 24.7932 43.4753L23.488 34.7921L21.5585 40.9781C21.4448 41.3186 21.161 41.5458 20.8205 41.5458C20.4801 41.5458 20.1962 41.3756 20.026 41.0917L18.6638 38.1404H14.6912C14.2371 38.1404 13.8966 37.8 13.8966 37.3459C13.8966 36.8918 14.2371 36.5514 14.6912 36.5514H19.1745C19.4583 36.5514 19.7422 36.7216 19.9124 37.0054L20.6503 38.5945L23.034 30.9897C23.1476 30.6492 23.4881 30.422 23.8851 30.422C24.2826 30.422 24.566 30.7624 24.623 31.1029L25.8151 39.0482L26.8364 34.6781C26.893 34.3942 27.1769 34.1104 27.4607 34.0538C27.7446 33.9971 28.085 34.1104 28.2553 34.3942L29.958 36.7212H32.9093C33.3633 36.7212 33.7038 37.0617 33.7038 37.5157C33.7034 37.9702 33.3629 38.3107 32.9089 38.3107H32.9088Z" fill="#47BDFF"></path>
        <path d="M26.6094 3.2917C25.8714 1.70261 25.1339 0 24.6798 0C24.2258 0 23.5449 1.75926 22.807 3.2917C12.5913 4.14285 4.36208 11.5209 3 18.9557C4.36219 18.2748 5.89433 17.8773 7.54038 17.8773C9.69712 17.8773 11.6266 18.5582 13.2724 19.6936C14.918 18.5586 16.848 17.8773 19.0044 17.8773C20.5368 17.8773 21.9557 18.2177 23.2043 18.842C23.4881 18.9556 24.5095 19.5229 24.7367 19.6932C24.9635 19.5229 26.0419 18.9552 26.2691 18.842C27.5744 18.2177 28.9932 17.8773 30.469 17.8773C32.6257 17.8773 34.5553 18.5582 36.201 19.6936C37.8467 18.5586 39.7766 17.8773 41.933 17.8773C43.5787 17.8773 45.1111 18.2747 46.4734 18.9557C44.9979 11.578 36.8254 4.14301 26.6097 3.2917H26.6094Z" fill="#B476E5"></path>
        <path d="M24.0554 26.3915C24.7363 25.8808 25.4743 25.4834 26.2122 25.1995V20.2051C25.9283 20.3753 24.7367 21.2264 24.7367 21.2264C24.7367 21.2264 23.4881 20.3753 23.2042 20.2051V25.8238C23.4881 25.994 23.7715 26.2212 24.0554 26.3915L24.0554 26.3915Z" fill="#B476E5"></path>
    </g>
    <defs>
        <clipPath id="clip0_267_1396">
            <rect width="50" height="50" fill="white"></rect>
        </clipPath>
    </defs>
</svg>