<svg width="50" height="50" viewBox="0 0 50 50" fill="none" xmlns="http://www.w3.org/2000/svg">
    <path d="M45.7497 9.55861H40.34C40.7602 8.7182 40.9701 7.7202 40.9701 6.72267C40.9701 3.04631 37.9239 0 34.1423 0C29.2057 0.0523886 26.9471 3.09864 25.0039 6.40755C23.0607 3.09864 20.8021 0.0523333 15.8127 0.0523333C12.0836 0.0523333 8.98492 3.04621 8.98492 6.77501C8.98492 7.773 9.2476 8.7709 9.61506 9.61095L4.25821 9.61131C2.99762 9.61131 2 10.6093 2 11.8695V16.4387C2 17.6993 2.99799 18.697 4.25821 18.697H4.83596V36.7116C4.83596 40.8083 8.1973 44.1696 12.2939 44.1696H14.8148C14.4998 43.3819 14.2371 42.5415 14.1319 41.6487C14.0796 41.1761 14.0796 40.7559 14.1843 40.2832H12.2412C10.2453 40.2832 8.66993 38.6552 8.66993 36.712V18.6448H41.2329V36.6595C41.2329 38.6554 39.6048 40.2307 37.6616 40.2307H35.8232V41.1235C35.7708 42.1738 35.5082 43.1718 35.088 44.1174H37.6616C41.7582 44.1174 45.1195 40.7561 45.1195 36.6594V18.6448H45.6973C46.9579 18.6448 47.9555 17.6468 47.9555 16.3866V11.8173C48.0083 10.6091 46.9575 9.55875 45.7496 9.55875L45.7497 9.55861ZM34.1951 3.93907C35.8231 3.93907 37.1361 5.19966 37.1361 6.77501C37.1361 8.35073 35.8231 9.61095 34.1951 9.61095L27.6824 9.61131C29.7834 5.77701 30.9913 3.93906 34.1951 3.93906V3.93907ZM15.8128 3.93907C19.0165 3.93907 20.2244 5.77749 22.3254 9.61132H15.8128C14.1847 9.61132 12.8717 8.35073 12.8717 6.77538C12.8717 5.19929 14.2371 3.93907 15.8128 3.93907Z" fill="#B476E5"></path>
    <path d="M26.422 34.2433H23.5861C23.0607 34.2433 22.5358 33.9806 22.1679 33.5604C21.8001 33.1402 21.6953 32.5624 21.8001 32.0375C21.9576 31.1971 22.7453 30.6193 23.6385 30.6193H26.4221C27.2625 30.6193 27.9451 31.1971 28.1553 31.9848C28.2605 32.405 28.5755 32.6677 28.9957 32.6677H31.7269C31.9896 32.6677 32.1995 32.5625 32.3571 32.3526C32.5146 32.1427 32.6197 31.9324 32.567 31.6697C32.2519 28.8338 29.9934 26.5752 27.1573 26.2077V23.7916C27.1573 23.319 26.7895 22.9512 26.3169 22.9512H23.5857C23.1131 22.9512 22.7453 23.319 22.7453 23.7916V26.2601C19.4891 26.6807 17.1258 29.569 17.3885 32.8779C17.5984 36.1341 20.4347 38.7077 23.8484 38.7077H26.4745C26.9998 38.7077 27.5248 38.9704 27.8926 39.3906C28.2605 39.8108 28.3652 40.3886 28.2605 40.9135C28.1029 41.7539 27.3153 42.3317 26.422 42.3317H23.6384C22.798 42.3317 22.1155 41.7539 21.9053 40.9662C21.8001 40.546 21.485 40.2833 21.0648 40.2833H18.3337C18.071 40.2833 17.861 40.3885 17.7035 40.5984C17.546 40.8083 17.4408 41.0186 17.4936 41.2813C17.8087 44.1172 20.0672 46.3758 22.9032 46.7433V49.1594C22.9032 49.632 23.2711 49.9998 23.7437 49.9998H26.4748C26.9474 49.9998 27.3153 49.632 27.3153 49.1594V46.7433C30.2563 46.2707 32.5149 43.9073 32.7249 41.0186C32.8301 39.2854 32.2523 37.6049 31.0441 36.3442C29.7835 34.9785 28.1553 34.2432 26.4221 34.2432L26.422 34.2433Z" fill="#47BDFF"></path>
</svg>