<svg width="50" height="50" viewBox="0 0 50 50" fill="none" xmlns="http://www.w3.org/2000/svg">
    <path d="M34.8141 38.9194H32.5093C32.5093 38.8544 32.4991 38.7886 32.4737 38.7247L30.3821 33.4967L34.2045 31.3358C34.4585 31.1923 34.5482 30.87 34.4043 30.6161C34.2608 30.3621 33.9378 30.2735 33.6846 30.4162L32.2161 31.2464C32.3498 30.9336 32.4247 30.5892 32.4247 30.2273C32.4247 28.7941 31.2653 27.6348 29.8321 27.6348C28.3989 27.6348 27.2396 28.7941 27.2396 30.2273C27.2396 31.5447 28.2223 32.6186 29.4935 32.7861L26.6404 34.3992C26.7287 34.1605 26.7785 33.908 26.7785 33.6519C26.7785 33.3402 26.7098 33.0285 26.5725 32.7324C26.0598 31.6384 24.7443 31.1843 23.6664 31.7177L15.3339 35.855H4.81304C4.39051 35.855 4.00468 36.0294 3.72998 36.304C3.44987 36.5787 3.28093 36.9645 3.28093 37.3871C3.28093 38.2325 3.96249 38.9195 4.8134 38.9195H1.07203C0.665123 38.9195 0.332336 39.2523 0.332336 39.6592V41.3711C0.332336 41.778 0.665123 42.1108 1.07203 42.1108L2.32436 42.1112V44.8745C2.32436 45.2814 2.65715 45.6142 3.06405 45.6142H5.10368C5.51059 45.6142 5.84337 45.2814 5.84337 44.8745V42.1112H30.0427V44.8745C30.0427 45.2814 30.3755 45.6142 30.7824 45.6142H32.8221C33.229 45.6142 33.5618 45.2814 33.5618 44.8745V42.1112H34.8141C35.221 42.1112 35.5538 41.7784 35.5538 41.3715V39.6596C35.5538 39.2523 35.221 38.9195 34.8141 38.9195L34.8141 38.9194ZM20.7905 38.9194L29.4536 34.0217L31.4133 38.9194H20.7905Z" fill="#47BDFF"></path>
    <path d="M15.238 34.7188L12.6331 32.5789C11.9991 32.0612 11.1006 32.0187 10.4191 32.4783L6.98981 34.798H15.0843L15.238 34.7188Z" fill="#47BDFF"></path>
    <path d="M12.712 18.8535C12.8598 19.1071 12.7701 19.4294 12.5165 19.5772C12.292 19.712 11.9458 19.6524 11.7979 19.3818L11.1534 18.2668C11.0055 18.0187 11.0953 17.691 11.3488 17.5482C11.597 17.4003 11.9196 17.49 12.0675 17.7382L12.712 18.8535Z" fill="#B476E5"></path>
    <path d="M15.5765 16.5221C15.4232 16.78 15.0908 16.861 14.8528 16.7121L13.7379 16.0727C13.4843 15.9248 13.3996 15.6022 13.5424 15.3486C13.6903 15.095 14.0125 15.0104 14.2661 15.1531L15.3811 15.7976C15.6347 15.9462 15.7193 16.2685 15.5765 16.5221Z" fill="#B476E5"></path>
    <path d="M5.53748 18.2666L4.89297 19.3815C4.74584 19.6511 4.39924 19.7122 4.17435 19.577C3.92076 19.4291 3.83102 19.1069 3.97888 18.8533L4.62339 17.7383C4.76618 17.4902 5.09351 17.4001 5.34202 17.5483C5.59561 17.6907 5.68534 18.0185 5.53748 18.2666V18.2666Z" fill="#B476E5"></path>
    <path d="M7.81427 5.81723V4.52825C7.81427 4.2376 8.05187 4 8.34252 4C8.63825 4 8.87077 4.23797 8.87077 4.52825V5.81723C8.87077 6.10787 8.63825 6.34548 8.34252 6.34548C8.05187 6.34584 7.81427 6.10787 7.81427 5.81723Z" fill="#B476E5"></path>
    <path d="M3.14906 9.34789C3.0001 9.59857 2.67966 9.68649 2.42535 9.54335L1.31039 8.89885C1.0568 8.75098 0.972155 8.42873 1.11493 8.17477C1.26279 7.92118 1.58505 7.83654 1.83863 7.97931L2.95359 8.62382C3.20719 8.77205 3.29183 9.0943 3.14906 9.34789Z" fill="#B476E5"></path>
    <path d="M13.5416 9.3479C13.3988 9.0943 13.4835 8.77205 13.7371 8.62382L14.8521 7.97931C15.1056 7.83653 15.4279 7.92118 15.5758 8.17478C15.7185 8.42837 15.6339 8.75062 15.3803 8.89885L14.2653 9.54336C14.0179 9.68287 13.696 9.60803 13.5416 9.3479Z" fill="#B476E5"></path>
    <path d="M16.6909 12.3466C16.6909 12.6373 16.4583 12.8749 16.1626 12.8749H14.8787C14.5829 12.8749 14.3504 12.6373 14.3504 12.3466C14.3504 12.056 14.5829 11.8184 14.8787 11.8184H16.1626C16.4583 11.8184 16.6909 12.056 16.6909 12.3466Z" fill="#B476E5"></path>
    <path d="M12.8441 12.3479C12.8441 14.8311 10.831 16.8442 8.34238 16.8442C5.8592 16.8442 3.84607 14.8311 3.84607 12.3479C3.84607 9.86469 5.8592 7.85156 8.34238 7.85156C10.831 7.8512 12.8441 9.86469 12.8441 12.3479Z" fill="#B476E5"></path>
    <path d="M1.81257 12.8749H0.528612C0.232516 12.8749 0 12.6373 0 12.3466C0 12.056 0.232517 11.8184 0.528249 11.8184H1.81258C2.10831 11.8184 2.34083 12.056 2.34083 12.3466C2.34083 12.6373 2.10831 12.8749 1.81258 12.8749H1.81257Z" fill="#B476E5"></path>
    <path d="M3.14906 15.3483C3.29184 15.6019 3.20719 15.9242 2.9536 16.0724L1.83864 16.7118C1.60103 16.8604 1.26825 16.7801 1.11493 16.5218C0.97215 16.2682 1.0568 15.946 1.3104 15.7977L2.42536 15.1532C2.6735 15.0104 3.0012 15.0947 3.14906 15.3483Z" fill="#B476E5"></path>
    <path d="M3.97864 5.83906C3.83078 5.59092 3.92051 5.26322 4.1741 5.12044C4.42261 4.97257 4.74994 5.06231 4.89273 5.31045L5.53723 6.43053C5.6851 6.67867 5.59536 7.00128 5.34177 7.14915C5.08455 7.30356 4.76121 7.20401 4.62315 6.95914L3.97864 5.83906Z" fill="#B476E5"></path>
    <path d="M11.1532 6.43069L11.7977 5.31061C11.9405 5.06247 12.2678 4.97237 12.5163 5.1206C12.7699 5.26338 12.8597 5.59072 12.7118 5.83922L12.0673 6.9593C11.9332 7.19763 11.6121 7.30771 11.3487 7.14931C11.0951 7.00145 11.0053 6.67919 11.1532 6.43069Z" fill="#B476E5"></path>
    <path d="M8.87077 18.8779V20.1668C8.87077 20.4575 8.63825 20.6951 8.34252 20.6951C8.05187 20.6951 7.81427 20.4571 7.81427 20.1668V18.8779C7.81427 18.5872 8.05187 18.3496 8.34252 18.3496C8.63861 18.3492 8.87077 18.5872 8.87077 18.8779Z" fill="#B476E5"></path>
    <path d="M40.2773 26.555C38.8665 27.0255 37.4398 27.1679 36.0977 26.9725C35.7755 25.2922 35.4321 23.7866 35.1465 22.6081C35.5218 22.7032 35.9178 22.7298 36.3248 22.6927C37.2759 22.603 38.0737 22.1696 38.6441 21.541C39.3105 22.9092 39.8437 24.6476 40.2773 26.555V26.555Z" fill="#B476E5"></path>
    <path d="M40.9377 30.0703C39.4899 30.5404 38.0632 30.6516 36.6895 30.398C36.5678 29.6002 36.4359 28.8184 36.2986 28.0627C37.6617 28.2106 39.0884 28.0522 40.4936 27.5977C40.6575 28.406 40.8054 29.2354 40.9376 30.0703L40.9377 30.0703Z" fill="#B476E5"></path>
    <path d="M42.0742 44.1652C42.0793 44.5881 41.7675 44.9471 41.345 45.0056L36.9596 45.6025C36.278 45.6977 35.7865 44.9736 36.1142 44.3662C37.6516 41.4921 37.4933 36.3298 36.8433 31.4894C37.2713 31.5526 37.6993 31.5846 38.1327 31.5846C39.11 31.5846 40.0982 31.4313 41.0969 31.125C41.8467 36.4136 42.0426 41.8561 42.0742 44.1645L42.0742 44.1652Z" fill="#B476E5"></path>
    <path d="M47.2788 8.04022L43.9607 8.35739C43.7493 8.37338 43.6755 8.64259 43.8499 8.7643L45.2551 9.76812C43.0095 9.22933 40.4257 9.65731 38.1169 11.1418L35.8502 12.5947C36.3309 9.40344 38.2913 7.88148 38.2913 7.88148C42.3334 4.16159 46.1797 6.65026 47.4004 7.63843C47.5588 7.76558 47.4796 8.02462 47.2787 8.04024L47.2788 8.04022Z" fill="#B476E5"></path>
    <path d="M34.3649 12.2053C34.3965 12.1843 34.4285 12.1683 34.4601 12.1472C31.3164 11.3123 28.8172 10.1291 25.4356 11.7087L26.6508 10.4247C26.7936 10.2714 26.6719 10.0178 26.4604 10.0389L23.1529 10.3666C22.9469 10.3826 22.8201 10.1501 22.952 9.99677C23.9663 8.79206 27.2633 5.61133 31.9449 8.4909C31.9449 8.4909 34.1483 9.62149 35.2369 12.6544C34.9619 12.459 34.6661 12.3057 34.3649 12.2054L34.3649 12.2053Z" fill="#B476E5"></path>
    <path d="M29.5406 15.9841C29.6408 17.0461 30.1851 17.9656 30.9989 18.5625L29.9631 19.3658C29.8468 19.461 29.6725 19.4134 29.6143 19.2706L28.822 17.2891C28.7533 17.1147 28.5102 17.0936 28.4151 17.2629C27.966 18.0553 26.867 19.683 25.3822 19.8257C25.2554 19.8363 25.1446 19.7306 25.1391 19.6038L25.0178 17.3531C25.0018 17.1417 24.7377 17.057 24.6109 17.2263L22.5662 19.8577C22.4449 20.0161 22.1859 19.9475 22.1648 19.7469C22.0009 18.3573 21.9428 14.5742 25.6838 12.7566C26.1434 12.5295 26.656 12.3391 27.2373 12.1807C27.2373 12.1807 29.1712 11.6735 31.5646 12.3867C30.3014 13.004 29.3768 14.325 29.5406 15.9842L29.5406 15.9841Z" fill="#B476E5"></path>
    <path d="M49.9992 17.0654C50.0152 17.2663 49.7721 17.3826 49.6188 17.2503L47.1142 15.0523C46.9558 14.915 46.7073 15.0472 46.7389 15.2583L47.0241 17.3296C47.0557 17.5621 46.8707 17.7681 46.6382 17.7681C45.233 17.7681 43.949 16.4791 43.3834 15.8186C43.262 15.6758 43.0241 15.7394 42.9925 15.9243L42.591 18.0221C42.5645 18.1699 42.4006 18.2491 42.2633 18.1805L41.2965 17.6893C41.7721 17.0128 42.0097 16.1728 41.9254 15.2903C41.751 13.383 40.2767 12.1939 38.6865 12.0304C41.1487 10.4504 43.5686 10.6037 43.5686 10.6037C49.048 10.9946 49.8774 15.5014 49.9992 17.0655L49.9992 17.0654Z" fill="#B476E5"></path>
    <path d="M39.4319 17.9529C39.4213 17.9158 39.4053 17.8787 39.3948 17.842C38.7859 16.1643 36.9694 15.2539 35.7385 15.4646C35.8788 14.0626 36.9026 13.1867 38.0633 13.0708C39.4845 12.9335 40.742 13.9693 40.8743 15.3905C40.98 16.4891 40.3776 17.4984 39.4319 17.9529L39.4319 17.9529Z" fill="#B476E5"></path>
    <path d="M35.0996 13.9428C34.6523 14.794 34.6941 15.5083 34.6556 15.7078C33.715 16.0671 32.9491 16.8224 32.579 17.795C32.5419 17.9007 32.5048 18.0064 32.4732 18.1118C31.4745 17.8371 30.6977 16.9757 30.5924 15.8821C30.455 14.4659 31.4905 13.2085 32.912 13.0712C33.7731 12.9865 34.5709 13.3349 35.0996 13.9427L35.0996 13.9428Z" fill="#B476E5"></path>
    <path d="M38.1009 20.5386C37.6889 21.1464 37.0124 21.5689 36.2251 21.643C35.7336 21.6906 35.2634 21.6009 34.8514 21.4C34.0696 21.0196 33.5039 20.2585 33.4142 19.3338C33.3771 18.9269 33.4302 18.5306 33.5675 18.1716C33.8898 17.3313 34.6349 16.6923 35.57 16.5495C35.6227 16.5335 35.6808 16.5284 35.7339 16.5234C35.7866 16.5179 35.8396 16.5128 35.8923 16.5179C37.0229 16.4703 38.0267 17.1733 38.402 18.2036C38.4761 18.4042 38.5233 18.6211 38.5447 18.8431C38.608 19.4661 38.4336 20.063 38.1008 20.5386L38.1009 20.5386Z" fill="#B476E5"></path>
</svg>