<svg width="50" height="50" viewBox="0 0 50 50" fill="none" xmlns="http://www.w3.org/2000/svg">
    <path d="M1.0957 16.4609L11.8572 42.5465L22.6188 16.4609H1.0957Z" fill="#B476E5"></path>
    <path d="M16.1364 9.77767L13.9242 10.1744L13.4034 14.1427L12.2323 12.1585H11.5816L10.4102 13.7459L10.0198 9.38095H8.06813L6.24641 14.1427L5.20494 7H3.25331V14.5398L1.56189 11.365H0L1.07766 15.4653H17.1765L16.1364 9.77767Z" fill="#B476E5"></path>
    <path d="M24.0738 12.6875L22.2525 11.7615L20.3005 14.6716L19.3893 10.3066H18.0882L17.177 15.4652H22.7736L24.0738 12.6875Z" fill="#B476E5"></path>
    <path d="M20.5798 27.1243V27.882H48.0288V27.1243H48.0299C48.0299 23.9086 45.7834 21.293 43.022 21.293L25.5872 21.2933C22.8257 21.2933 20.5792 23.909 20.5792 27.1243L20.5798 27.1243Z" fill="#47BDFF"></path>
    <path d="M46.9339 32.3262H20.8634C20.2581 32.3262 19.7679 32.9606 19.7679 33.7442C19.7679 34.5277 20.2584 35.1633 20.8634 35.1633H46.9339C47.5395 35.1633 48.0301 34.5277 48.0301 33.7442C48.0304 32.9606 47.5399 32.3262 46.9339 32.3262Z" fill="#47BDFF"></path>
    <path d="M20.2549 36.991C20.2549 40.2078 22.501 42.8234 25.2628 42.8234H42.6967C45.4581 42.8234 47.7046 40.2081 47.7046 36.991V36.2344H20.2556L20.2549 36.991Z" fill="#47BDFF"></path>
    <path d="M49.0851 29.1121C48.1624 29.111 46.6359 28.5851 45.7649 29.1461C45.2681 29.4683 44.7835 30.0554 44.2613 29.5306C43.976 29.2442 43.6527 28.925 43.2619 28.791C42.299 28.4592 41.4412 28.8633 40.5872 29.3118C39.8431 29.7045 39.0555 29.0069 38.3355 28.9442C37.8195 28.8999 37.3899 28.9822 36.8927 29.132C35.7847 29.4668 35.1843 29.6705 34.0974 29.1652C33.4751 28.8759 32.8975 28.608 32.2302 28.4563C30.7949 28.1307 29.5533 29.3291 28.0974 29.0361C26.8625 28.7858 26.0169 28.1761 24.709 28.3662C24.1904 28.4419 23.6623 28.8859 23.2485 29.1752C22.197 29.9071 21.2131 29.1678 20.2447 28.674C19.1607 28.1211 18.2034 29.7528 19.2902 30.3068C20.2734 30.808 21.3526 31.6336 22.5274 31.4424C23.8796 31.2225 24.8289 29.9326 26.2177 30.3452C27.4981 30.7257 28.3266 31.0893 29.6841 30.8837C30.8053 30.7143 31.3633 30.0208 32.6311 30.5571C33.3327 30.8538 33.9624 31.2029 34.7072 31.3845C36.0613 31.7163 37.2419 30.5571 38.5226 30.9291C39.8793 31.3229 40.6079 31.4388 41.8926 30.7608C42.5551 30.4128 44.0111 31.7488 44.8677 31.7713C45.2914 31.7824 45.7265 31.486 46.0561 31.2564C46.9419 30.6394 48.0941 31.0025 49.0851 31.004C50.3049 31.0051 50.3049 29.1143 49.0851 29.1122V29.1121Z" fill="#47BDFF"></path>
</svg>