<svg width="50" height="50" viewBox="0 0 50 50" fill="none" xmlns="http://www.w3.org/2000/svg">
    <path d="M35.9006 13.0684C31.3845 13.1158 29.9582 14.352 27.7239 16.3008C26.8683 17.0616 23.7781 17.2042 21.8766 17.0138C20.7833 16.9186 19.8326 17.7268 19.6897 18.7727C19.5945 19.866 20.3552 20.8167 21.4485 20.9596C21.7815 21.0071 22.5419 21.0548 23.4926 21.0548C25.5366 21.0548 28.5794 20.7696 30.2905 19.2482C30.5282 19.0105 30.766 18.8205 31.0034 18.6301C30.8134 20.6268 30.5279 24.097 30.2905 27.1396C23.73 27.2822 21.0679 27.9003 20.0696 30.0395C19.3566 31.6083 19.3089 36.5523 19.9744 44.7291C20.0696 46.0602 21.2103 47.1061 22.5413 47.1061H22.7313C24.1576 47.0109 25.2035 45.775 25.1083 44.3488C24.7754 40.0226 24.5379 34.7934 24.7279 32.7492C26.0116 32.4641 28.5785 32.3215 30.7655 32.3689C33.095 32.4163 38.0864 32.8444 38.5619 30.8953C39.0849 28.7083 39.7978 18.5826 39.7978 16.2057C39.7988 14.5423 39.1334 13.0684 35.9006 13.0684Z" fill="#47BDFF"></path>
    <path d="M36.2283 2.00879C38.9803 2.17095 41.08 4.53329 40.9179 7.2853C40.7557 10.0373 38.3934 12.137 35.6414 11.9749C32.889 11.8127 30.7896 9.45036 30.9518 6.69836C31.1136 3.94635 33.4759 1.84665 36.2283 2.00879Z" fill="#47BDFF"></path>
    <path d="M43.5545 13.972C42.6512 13.8768 41.8431 14.5423 41.7479 15.4456L39.7987 33.7957H28.1041C27.2008 33.7957 26.4401 34.5564 26.4401 35.4597C26.4401 36.363 27.2008 37.1238 28.1041 37.1238H33.4761V43.2088L29.7681 44.5395C29.1025 44.7773 28.7222 45.538 28.9599 46.2509C29.1977 46.9638 29.9584 47.2968 30.6713 47.0591L34.8072 45.5854L38.943 47.0591C39.0856 47.1065 39.2282 47.1542 39.3708 47.1542C39.8937 47.1542 40.4166 46.8213 40.6067 46.2987C40.8445 45.6332 40.5115 44.8724 39.7986 44.5873L36.0905 43.2562L36.0908 37.1235H41.2251C42.0806 37.1235 42.7939 36.5054 42.8891 35.6498L44.9809 15.826C45.1232 14.8753 44.4576 14.0668 43.5543 13.972L43.5545 13.972Z" fill="#B476E5"></path>
    <path d="M28.4369 26.332C28.627 26.332 28.8173 26.142 28.8173 25.9516V23.7173C28.8173 23.5273 28.6273 23.3369 28.4369 23.3369L25.9648 23.3373V22.5766C25.9648 22.3866 25.7748 22.1962 25.5845 22.1962H18.5962C18.4062 22.1962 18.2159 22.3862 18.2159 22.5766V23.3373H13.6049V22.5766C13.6049 22.3866 13.4149 22.1962 13.1294 22.1962H11.228C11.038 20.3896 10.9428 15.8735 12.2738 13.8769L12.4164 15.1128C12.4639 15.3028 12.6542 15.4457 12.8442 15.4457L13.272 15.3983L13.7475 18.8686C13.7949 19.0586 13.9853 19.2015 14.1753 19.2015L15.6489 19.0115C15.8389 18.9641 15.9819 18.7737 15.9819 18.5837L14.3178 6.22356C14.2704 6.03355 14.0801 5.89062 13.89 5.89062L12.4638 6.03322C12.2738 6.08064 12.1309 6.27098 12.1309 6.46099L12.6538 10.4067L12.226 10.4542C12.036 10.5016 11.8931 10.6919 11.8931 10.8819L12.0831 12.1656C11.8931 12.3082 11.6553 12.4985 11.465 12.7359C9.46835 15.1129 9.80095 20.8175 9.94357 22.1487H8.08954C7.80436 22.1487 7.61401 22.3387 7.61401 22.529V23.2897H5.38036C5.19034 23.2897 5 23.4798 5 23.6701V25.9044C5 26.0944 5.19001 26.2848 5.38036 26.2848H8.28024V46.5365C8.28024 46.7265 8.47025 46.9168 8.6606 46.9168H15.3637C15.5537 46.9168 15.7441 46.7268 15.7441 46.5365V26.3323L28.4369 26.332Z" fill="#B476E5"></path>
</svg>